<?xml version="1.0" encoding="UTF-8" standalone="no"?>
<!-- Created with Inkscape (http://www.inkscape.org/) -->

<svg
   width="200mm"
   height="200mm"
   viewBox="0 0 200 200"
   version="1.1"
   id="svg1"
   xml:space="preserve"
   xmlns:inkscape="http://www.inkscape.org/namespaces/inkscape"
   xmlns:sodipodi="http://sodipodi.sourceforge.net/DTD/sodipodi-0.dtd"
   xmlns:xlink="http://www.w3.org/1999/xlink"
   xmlns="http://www.w3.org/2000/svg"
   xmlns:svg="http://www.w3.org/2000/svg"><sodipodi:namedview
     id="namedview1"
     pagecolor="#505050"
     bordercolor="#eeeeee"
     borderopacity="1"
     inkscape:showpageshadow="0"
     inkscape:pageopacity="0"
     inkscape:pagecheckerboard="0"
     inkscape:deskcolor="#505050"
     inkscape:document-units="mm" /><defs
     id="defs1"><linearGradient
       id="linearGradient1"
       inkscape:collect="always"><stop
         style="stop-color:#009c48;stop-opacity:1;"
         offset="0"
         id="stop2" /><stop
         style="stop-color:#008040;stop-opacity:1;"
         offset="1"
         id="stop1" /></linearGradient><radialGradient
       inkscape:collect="always"
       xlink:href="#linearGradient1"
       id="radialGradient2"
       cx="114.44264"
       cy="148.51247"
       fx="114.44264"
       fy="148.51247"
       r="100"
       gradientUnits="userSpaceOnUse" /></defs><g
     inkscape:label="Layer 1"
     inkscape:groupmode="layer"
     id="layer1"
     transform="translate(-14.442643,-48.512465)"><rect
       style="opacity:0.875928;fill:url(#radialGradient2);fill-opacity:1;stroke:none;stroke-width:0.964999;stroke-linecap:round;stroke-linejoin:round;paint-order:markers stroke fill"
       id="rect1"
       width="200"
       height="200"
       x="14.442643"
       y="48.512466"
       ry="11.665216"
       inkscape:export-filename="agrani-bank.svg"
       inkscape:export-xdpi="25.4"
       inkscape:export-ydpi="25.4" /><path
       style="fill:#ffffff;fill-opacity:1"
       d="m 103.6807,213.37135 c -21.34934,-3.32866 -39.840595,-15.18083 -51.705535,-33.14124 -5.286766,-8.00278 -8.598529,-15.92626 -10.810351,-25.86404 -1.478334,-6.6422 -1.599067,-22.68179 -0.219433,-29.15225 2.05459,-9.63599 5.591363,-18.19971 10.719085,-25.954536 2.796113,-4.228654 9.701009,-11.879053 13.279563,-14.71332 1.800349,-1.425904 2.04126,-1.492726 2.766607,-0.767379 0.725346,0.725347 0.580377,0.991573 -1.66482,3.05733 -1.352643,1.244538 -2.616617,2.271749 -2.808831,2.282691 -0.62762,0.03573 -7.393087,8.138195 -9.628369,11.531144 -10.173681,15.44267 -13.872194,34.98002 -10.079326,53.24391 4.436364,21.36254 18.956597,40.22153 38.564228,50.08753 11.950408,6.0131 26.012552,8.70705 38.862722,7.4451 17.25151,-1.69417 31.63103,-8.27918 43.77276,-20.04545 12.48787,-12.10169 19.80689,-26.75022 21.90162,-43.83461 2.48844,-20.29543 -5.20565,-42.07284 -20.49108,-57.998083 -4.50484,-4.6934 -4.71895,-5.01277 -3.90128,-5.819329 0.81678,-0.805684 1.09693,-0.614315 5.01117,3.423069 25.60442,26.409973 29.37549,63.823863 9.46517,93.906923 -3.77394,5.70215 -12.90273,15.18366 -18.1799,18.88235 -8.30378,5.81998 -16.05819,9.3703 -26.18046,11.98662 -5.68705,1.46994 -6.85338,1.59813 -15.90741,1.74844 -5.37372,0.0892 -11.11848,-0.048 -12.76613,-0.30487 z m 0.74102,-7.59956 c -1.51566,-0.21445 -4.507683,-0.76186 -6.648931,-1.21647 -3.567404,-0.7574 -3.866163,-0.91465 -3.57034,-1.87926 0.17756,-0.57899 0.351195,-1.0854 0.385855,-1.12536 0.05475,-0.0631 2.877369,0.48612 11.117976,2.16345 1.7244,0.35099 1.99288,0.57007 1.75366,1.43099 -0.25786,0.92799 -0.52257,0.98259 -3.03822,0.62665 z m 7.29365,-1.51794 c 0.4638,-1.50886 0.16636,-1.35685 4.30891,-2.20217 3.46041,-0.70613 11.77595,-3.34745 12.35192,-3.92343 0.61337,-0.61337 -0.34206,-0.61852 -3.23178,-0.0174 -4.49054,0.93407 -12.31286,1.17101 -12.5787,0.38102 -0.15106,-0.44888 0.54626,-0.62715 2.46148,-0.62926 6.06265,-0.007 16.58155,-2.24522 22.17558,-4.71917 1.75185,-0.77475 2.89027,-1.03769 3.09045,-0.71381 0.46153,0.74678 -0.13841,1.13296 -4.18034,2.69093 -1.99793,0.7701 -3.63259,1.59003 -3.63259,1.82207 0,0.55041 0.0171,0.54817 2.49995,-0.32782 3.24095,-1.14348 6.50929,-1.12755 7.35999,0.0359 1.08627,1.48557 0.5958,2.87963 -1.34215,3.8148 -2.83346,1.36731 -4.33091,1.59427 -4.67101,0.70799 -0.21945,-0.57188 0.22243,-0.93078 1.68575,-1.3692 2.04601,-0.613 2.48149,-1.40241 1.31,-2.37466 -0.50047,-0.41536 -1.3681,-0.35365 -3.38206,0.24054 -1.48989,0.43958 -2.76767,0.85367 -2.83951,0.92022 -0.0718,0.0665 0.21,1.08639 0.62631,2.26632 0.4163,1.17994 0.75692,2.33187 0.75692,2.55984 0,0.70202 -3.66491,1.51839 -4.04628,0.90132 -0.2333,-0.3775 -1.72703,-0.29903 -4.99569,0.26245 -2.56457,0.44054 -6.7803,0.80097 -9.36827,0.80097 -4.64833,0 -4.70121,-0.0137 -4.35888,-1.12735 z m 13.24924,-1.40066 c 4.76059,-0.75463 4.90141,-0.82285 4.62994,-2.24297 -0.26596,-1.39123 -0.69343,-1.51184 -2.28291,-0.6441 -0.60193,0.32861 -2.89818,1.2195 -5.10278,1.97974 -3.39093,1.16935 -3.73824,1.38545 -2.25471,1.40293 0.96451,0.0114 3.21922,-0.21166 5.01046,-0.4956 z m -37.161675,-1.04696 -1.33688,-0.48957 1.553948,-3.51819 c 1.299831,-2.94285 1.436515,-3.5925 0.835834,-3.97261 -1.218943,-0.77134 -1.399178,-0.58775 -3.473868,3.5386 -1.108453,2.20461 -2.245818,4.00837 -2.527479,4.00837 -0.637751,0 -4.891224,-2.1648 -6.24004,-3.17586 -1.47719,-1.10729 -0.627316,-1.50274 1.09958,-0.51164 0.817639,0.46926 1.818564,0.72582 2.224277,0.57013 0.636535,-0.24426 3.940524,-5.76558 3.940524,-6.58503 0,-0.16103 -0.65842,-0.63327 -1.463156,-1.04941 l -1.463155,-0.75663 -2.05171,3.24865 -2.05171,3.24866 -1.734944,-1.12702 c -1.182296,-0.76802 -1.651032,-1.3966 -1.471517,-1.97333 0.169016,-0.543 -0.146697,-1.06581 -0.880903,-1.45874 -1.262907,-0.67589 -11.931026,-10.93034 -11.931026,-11.46839 0,-0.18537 0.525397,-0.61822 1.167548,-0.96189 1.062928,-0.56886 1.489595,-0.38258 4.761548,2.07886 4.215211,3.17104 9.529495,6.3934 10.54394,6.3934 0.392086,0 -0.279196,-0.70897 -1.491738,-1.57548 -3.611332,-2.58075 -10.127817,-9.49098 -9.521732,-10.09706 0.36527,-0.36527 1.635574,0.60479 4.184808,3.19572 2.013183,2.0461 5.232557,4.91042 7.154163,6.36516 3.298863,2.49737 12.687195,7.60614 15.143152,8.24033 1.217653,0.31443 1.576694,1.88807 0.430781,1.88807 -0.405367,0 -1.177231,1.36152 -1.846321,3.2568 -1.194114,3.38247 -1.34539,3.49689 -3.553924,2.6881 z M 76.363139,189.64128 c 0,-0.32222 -1.183721,-1.1865 -2.630492,-1.92063 -1.44677,-0.73412 -3.870581,-2.03947 -5.386245,-2.90076 l -2.755754,-1.56599 2.254708,2.11628 c 4.627238,4.34317 7.083199,6.04754 7.826024,5.43105 0.380468,-0.31576 0.691759,-0.83774 0.691759,-1.15995 z m 24.353691,11.23375 c -2.451052,-0.52224 -4.661873,-1.15494 -4.912934,-1.406 -0.628533,-0.62854 0.06415,-3.12434 0.962837,-3.4692 0.660857,-0.25359 5.483617,0.42965 9.408647,1.33294 1.357,0.31229 1.50314,0.53767 1.50314,2.31825 0,1.74297 -0.14567,1.98404 -1.25262,2.07294 -0.68893,0.0553 -3.25802,-0.32669 -5.70907,-0.84893 z m 3.53199,-1.27747 c 0.39096,-1.01881 0.13575,-1.21873 -1.99784,-1.56496 -2.38658,-0.38729 -3.6675,0.0881 -2.859764,1.06137 1.051004,1.26639 4.430454,1.61674 4.857604,0.50359 z m 46.08872,-7.24794 c -1.92858,-2.99335 -2.48995,-3.44971 -3.07638,-2.50085 -0.46299,0.74914 -1.75366,0.60421 -1.75366,-0.19691 0,-0.38388 0.33821,-0.82775 0.75157,-0.98637 0.43266,-0.16603 0.75157,-0.91459 0.75157,-1.76413 0,-1.21048 0.56317,-1.92385 3.13337,-3.96902 3.06946,-2.44244 10.72197,-10.77248 12.5933,-13.70825 0.64563,-1.01289 1.10872,-1.32089 1.45914,-0.97047 0.79634,0.79634 -1.6943,4.03779 -8.28491,10.78242 -3.54013,3.62287 -5.69818,6.19913 -5.42316,6.47415 0.57243,0.57244 4.88515,-3.43405 10.06894,-9.35399 4.46506,-5.09914 6.90999,-9.14114 6.04968,-10.00145 -0.86477,-0.86478 -0.66525,-2.50053 0.66252,-5.43137 1.10657,-2.44259 3.81847,-12.94137 4.54545,-17.59716 0.4946,-3.16757 1.42322,-2.26538 1.05136,1.02144 -0.42812,3.78409 -3.0043,14.17336 -4.01874,16.20686 -0.97293,1.95028 -0.99339,2.43776 -0.1023,2.43776 0.79024,0 3.88494,-8.89549 4.88073,-14.02929 0.9502,-4.89871 0.83562,-16.94655 -0.20802,-21.87412 -1.14737,-5.41734 -2.98582,-10.822 -3.60976,-10.61199 -0.60071,0.20218 -0.59494,0.24132 0.6894,4.67805 0.55841,1.92903 1.33743,5.25472 1.73115,7.39043 0.67059,3.63758 0.66038,3.88311 -0.16149,3.88311 -0.68083,0 -0.95414,-0.58922 -1.22016,-2.63049 -0.48536,-3.72433 -2.10002,-9.86476 -3.27492,-12.45428 -1.08829,-2.39861 -1.321,-4.45603 -0.50401,-4.45603 2.60781,0 -2.77151,-8.6851 -9.85197,-15.906332 -1.69454,-1.728235 -2.88492,-3.263422 -2.64528,-3.411528 0.70959,-0.438552 2.10121,0.541534 4.6733,3.291307 2.24632,2.401504 2.48009,2.528655 3.23581,1.760006 0.75412,-0.767027 0.61921,-1.002736 -1.81831,-3.17664 l -2.63287,-2.348137 1.69742,-1.994965 c 1.61725,-1.900747 1.75875,-1.962138 2.99617,-1.299893 2.38736,1.277681 12.34674,13.996742 12.34674,15.767962 0,0.63022 -3.44339,2.8088 -4.43951,2.8088 -0.29987,0 -0.88764,-0.66217 -1.30616,-1.4715 -0.73862,-1.42833 -0.71695,-1.50284 0.73824,-2.53903 1.81045,-1.28915 1.69303,-1.61177 -2.45021,-6.731877 -1.54759,-1.912483 -2.97475,-3.71625 -3.17147,-4.008369 -0.23725,-0.35232 -0.62653,-0.262342 -1.15628,0.267266 -0.73077,0.730559 -0.57492,1.066112 1.83424,3.949335 l 2.63286,3.150945 -1.35131,1.16235 c -0.74323,0.6393 -1.35132,1.30165 -1.35132,1.4719 0,0.17025 0.69838,1.3246 1.55195,2.56523 2.36028,3.43055 5.77476,10.98077 6.99222,15.46148 0.59902,2.2046 1.13876,4.06473 1.19942,4.13362 0.0607,0.0689 1.4038,-0.13452 2.98475,-0.45202 3.2928,-0.66129 3.2027,-0.0267 1.02925,-7.24994 -1.27461,-4.23607 -2.45736,-6.00434 -3.02563,-4.52347 -0.24992,0.65129 0.40638,3.2894 1.67025,6.71393 0.12714,0.34447 -0.11306,0.62631 -0.53376,0.62631 -0.47936,0 -1.08636,-0.98197 -1.62602,-2.6305 -0.47362,-1.44677 -1.39362,-3.69398 -2.04446,-4.9938 -0.65083,-1.29982 -1.18333,-2.47775 -1.18333,-2.61763 0,-0.46396 2.9395,-1.78318 3.97331,-1.78318 0.67245,0 1.33773,0.63631 1.96448,1.87892 1.669,3.30902 5.39946,17.24913 4.85271,18.13379 -0.14551,0.23544 -1.84375,0.58667 -3.77387,0.7805 l -3.5093,0.35243 v 1.70281 c 0,1.54153 0.13643,1.70281 1.4405,1.70281 2.48845,0 4.57205,-0.59939 4.57205,-1.31525 0,-0.37891 0.45094,-0.68893 1.00209,-0.68893 0.89075,0 1.00209,0.33403 1.00209,3.00627 v 3.00628 h -3.75784 -3.75785 v 1.43758 c 0,1.27196 0.21647,1.47336 1.87892,1.74815 1.03341,0.17081 2.72444,0.31304 3.75785,0.31608 l 1.87892,0.006 v 2.25471 c 0,2.1579 -0.0629,2.25471 -1.46428,2.25471 -1.7,0 -1.91163,0.49944 -3.33973,7.88139 -1.21449,6.2778 -0.10623,7.46116 1.26195,1.34748 0.41748,-1.86549 0.85214,-2.71527 1.38885,-2.71527 0.9465,0 0.75199,1.62518 -0.83047,6.93876 -1.16162,3.90052 -1.90996,4.39935 -4.02751,2.68466 l -1.10965,-0.89854 1.05414,-3.53963 c 1.16878,-3.92452 1.26658,-4.68421 0.60308,-4.68421 -0.24809,0 -0.72771,1.18372 -1.06581,2.63049 -0.33811,1.44678 -0.92311,3.38801 -1.3,4.31387 -0.57734,1.4183 -0.87389,1.63602 -1.88328,1.38268 -0.87563,-0.21977 -1.26554,-0.066 -1.44889,0.57134 -0.13797,0.47961 -0.41402,1.26849 -0.61345,1.75305 -0.2987,0.72582 0.26104,1.15648 3.17721,2.44453 l 3.53979,1.56349 -1.00625,1.97241 c -0.55344,1.08483 -1.16325,1.89968 -1.35513,1.81077 -0.19188,-0.0889 -1.73698,-0.8854 -3.43356,-1.77 l -3.08468,-1.60837 -0.80121,1.2228 c -0.89461,1.36535 -1.25792,0.96531 3.59918,3.96309 2.25044,1.38897 2.27527,1.59609 0.47954,3.99956 -0.69594,0.93147 -0.74338,0.93168 -2.30343,0.0101 -1.96354,-1.1599 -3.09777,-0.62553 -3.82354,1.80136 -0.30886,1.03277 -1.11053,2.03552 -2.08996,2.61417 -2.30585,1.36229 -4.45737,4.31403 -3.68996,5.06236 0.45934,0.44791 1.0855,0.0286 2.68832,-1.80012 2.06597,-2.3572 3.34212,-3.00775 3.34212,-1.70375 0,0.88538 -6.21988,6.84355 -7.14415,6.84355 -0.68714,0 -1.82094,-1.04677 -2.58193,-2.38373 -0.42153,-0.74057 4.74556,-6.36524 6.84506,-7.45124 0.75784,-0.39201 1.37788,-1.12748 1.37788,-1.63439 0,-0.50691 0.48475,-1.53791 1.07721,-2.29111 0.88883,-1.12995 0.95454,-1.44712 0.37579,-1.81356 -0.87562,-0.5544 -1.453,-0.57995 -1.453,-0.0643 0,0.70418 -5.96535,7.13849 -9.51039,10.25804 l -3.45096,3.03677 2.29069,2.97692 2.29069,2.97693 -1.44678,1.1831 c -0.79573,0.65071 -1.67226,1.18924 -1.94783,1.19674 -0.27558,0.007 -1.37138,-1.33722 -2.43513,-2.98826 z m 25.00251,-39.95405 c 0.43993,-1.58455 0.89606,-3.1784 1.01362,-3.54187 0.12889,-0.39848 0.59505,-0.53983 1.17416,-0.35603 0.77058,0.24457 1.02924,-0.009 1.30864,-1.28066 0.40019,-1.82205 -0.29707,-2.54601 -2.25532,-2.34166 -1.11633,0.11649 -1.30123,0.4636 -1.80395,3.38659 -0.30808,1.79124 -0.7317,4.10232 -0.94139,5.13573 -0.62132,3.06203 0.60219,2.24696 1.50424,-1.0021 z m -69.03941,36.58716 c -1.76893,-0.18504 -1.87892,-0.29743 -1.87892,-1.91996 0,-1.19789 -0.22918,-1.72341 -0.75157,-1.72341 -0.50427,0 -0.75157,0.50433 -0.75157,1.53271 0,0.89421 -0.20872,1.40371 -0.50104,1.22304 -0.27558,-0.17031 -0.50105,-1.0855 -0.50105,-2.03375 0,-0.94825 -0.22547,-1.7241 -0.50105,-1.7241 -0.27557,0 -0.50104,0.83425 -0.50104,1.85388 0,2.28507 -0.86102,1.64367 -1.091633,-0.8132 -0.224123,-2.38773 -1.4136,-2.66614 -1.4136,-0.33086 0,0.98748 -0.22547,1.79542 -0.501046,1.79542 -0.275575,0 -0.501046,-1.00132 -0.501046,-2.22514 0,-1.22383 -0.225471,-2.36449 -0.501046,-2.5348 -0.307221,-0.18988 -0.501046,0.61275 -0.501046,2.07482 0,2.97657 -0.873721,2.35199 -1.095722,-0.78327 -0.219484,-3.09972 -1.409509,-3.3544 -1.409509,-0.30164 0,1.42309 -0.194498,2.20582 -0.501046,2.01636 -0.275575,-0.17031 -0.501046,-1.53644 -0.501046,-3.03584 0,-1.4994 -0.22547,-2.72619 -0.501046,-2.72619 -0.56599,0 -0.636248,0.44149 -0.507245,3.18741 0.06657,1.41694 -0.08807,1.87563 -0.57776,1.71373 -0.447269,-0.14787 -0.717709,-1.32762 -0.81681,-3.56319 -0.186827,-4.21451 -1.104461,-4.4103 -1.104461,-0.23565 0,4.24311 -0.907246,3.16208 -1.101838,-1.31289 -0.0963,-2.21448 -0.377087,-3.54217 -0.777085,-3.67434 -0.458957,-0.15165 -0.626308,0.68234 -0.626308,3.12118 0,2.09116 -0.186224,3.21303 -0.501046,3.01846 -0.275575,-0.17031 -0.501046,-2.21286 -0.501046,-4.53898 0,-2.48552 -0.206588,-4.22933 -0.501046,-4.22933 -0.289841,0 -0.501046,1.59651 -0.501046,3.78742 0,2.39736 -0.183895,3.67376 -0.501046,3.47775 -0.275576,-0.17031 -0.501046,-2.19442 -0.501046,-4.498 0,-4.29537 -0.270273,-5.77344 -1.055699,-5.77344 -0.246092,0 -0.44744,2.04254 -0.44744,4.53898 0,2.8984 -0.181099,4.42706 -0.501046,4.22932 -0.284954,-0.17611 -0.504355,-2.72794 -0.508718,-5.91686 -0.0042,-3.08396 -0.226238,-5.9454 -0.493374,-6.35877 -0.329263,-0.50949 -0.488172,1.09624 -0.493374,4.98541 -0.01104,8.25513 -0.904123,6.36231 -1.099972,-2.3313 -0.108937,-4.83566 -0.361034,-7.31655 -0.786623,-7.74116 -0.500979,-0.49983 -0.626307,0.80478 -0.626307,6.51955 0,4.63537 -0.175964,7.03568 -0.501047,6.83476 -0.310915,-0.19215 -0.501046,-4.75528 -0.501046,-12.0251 0,-7.26982 -0.19013,-11.83295 -0.501046,-12.02511 -0.325882,-0.20141 -0.537743,2.985 -0.606015,9.11452 -0.05773,5.1833 -0.1141,10.15712 -0.125261,11.05292 -0.02204,1.76886 -0.473531,2.12611 -0.989078,0.78262 -0.178435,-0.46499 -0.284202,-5.66482 -0.235038,-11.55518 0.06215,-7.44639 -0.08434,-10.88346 -0.480747,-11.27987 -0.426152,-0.42615 -0.570137,2.20101 -0.570137,10.40278 0,7.17103 -0.170245,10.80266 -0.491358,10.48155 -0.284191,-0.28419 -0.548256,-5.32619 -0.626308,-11.9586 -0.08418,-7.15337 -0.325298,-11.53058 -0.640937,-11.63561 -0.278294,-0.0926 -0.514585,0.45242 -0.525091,1.21116 -0.01051,0.75874 -0.06465,5.39494 -0.12032,10.30267 -0.06575,5.79646 -0.276784,8.81463 -0.602263,8.61347 -0.310359,-0.19181 -0.503966,-4.73189 -0.508718,-11.92941 -0.0044,-6.63654 -0.215969,-11.94207 -0.493374,-12.37133 -0.321594,-0.49763 -0.488294,3.04339 -0.493374,10.48022 -0.0042,6.17748 -0.176775,11.06329 -0.383457,10.85736 -0.206681,-0.20593 -0.48852,-6.77113 -0.626307,-14.58933 -0.183647,-10.42029 -0.417714,-14.38196 -0.876831,-14.84068 -0.501032,-0.5006 -0.629355,1.92485 -0.641544,12.12586 -0.01046,8.75133 -0.172501,12.48182 -0.516545,11.89158 -0.802256,-1.37634 -0.395996,-43.75821 0.427341,-44.58102 0.528793,-0.52846 0.613242,0.66244 0.46182,6.51256 -0.184148,7.11448 0.222199,9.70194 0.828714,5.27693 0.174374,-1.2722 0.320497,-5.15638 0.324717,-8.6315 0.0042,-3.47512 0.226238,-6.65661 0.493374,-7.06997 0.330356,-0.51119 0.493252,1.01121 0.509308,4.75993 0.02123,4.95649 0.09769,5.41357 0.759242,4.53892 0.547089,-0.72332 0.737601,-2.45698 0.743307,-6.76413 0.0042,-3.18534 0.226238,-6.12973 0.493373,-6.54309 0.330192,-0.51094 0.488158,0.98244 0.493374,4.66424 0.0049,3.48112 0.186662,5.3052 0.508718,5.10616 0.288544,-0.17833 0.501047,-2.83461 0.501047,-6.26308 0,-3.42847 0.212502,-6.08475 0.501046,-6.26308 0.322085,-0.19906 0.501046,1.6019 0.501046,5.04224 0,4.70044 0.09148,5.27598 0.751569,4.72816 0.590482,-0.49005 0.751569,-1.89296 0.751569,-6.54538 0,-3.40728 0.212746,-6.053115 0.501046,-6.231294 0.322494,-0.199312 0.501046,1.664954 0.501046,5.231414 0,3.36002 0.19722,5.54108 0.501046,5.54108 0.307044,0 0.501046,-2.40128 0.501046,-6.20173 0,-5.092387 0.144447,-6.321604 0.807526,-6.871911 0.73671,-0.611415 0.791633,-0.133465 0.626307,5.450171 -0.116552,3.93638 -0.0024,6.06102 0.319829,5.95406 0.290511,-0.0964 0.55979,-2.93866 0.64085,-6.76414 0.1787,-8.433447 1.112811,-8.889691 1.112811,-0.54353 0,4.62039 0.148336,6.00503 0.626308,5.84623 0.450951,-0.14983 0.665337,-2.12551 0.765708,-7.056404 0.181264,-8.90492 1.113214,-9.185135 1.113214,-0.334717 0,4.008371 0.19271,6.513601 0.501047,6.513601 0.31007,0 0.501046,-2.66239 0.501046,-6.985077 0,-4.116244 0.205784,-7.112257 0.501046,-7.294739 0.325009,-0.200866 0.501046,2.179915 0.501046,6.776306 0,5.44578 0.144971,7.03778 0.626307,6.87778 0.455996,-0.15157 0.663919,-2.2748 0.76462,-7.807965 0.183656,-10.091293 1.114303,-10.161524 1.114303,-0.08409 0,4.676435 0.189284,7.515695 0.501046,7.515695 0.306463,0 0.503188,-2.38365 0.506561,-6.137819 0.0061,-6.755014 0.363118,-9.895661 1.125005,-9.895661 0.316806,0 0.429821,2.76774 0.310226,7.597432 -0.142836,5.768268 -0.03734,7.648118 0.438177,7.807968 0.483259,0.16245 0.626308,-1.5728 0.626308,-7.597431 0,-4.871282 0.18845,-7.807969 0.501046,-7.807969 0.275575,0 0.501046,1.146143 0.501046,2.546985 0,3.310859 1.187241,3.136674 1.40533,-0.206182 0.177782,-2.725045 1.099901,-3.192493 1.099901,-0.557571 0,1.061233 0.202864,1.657855 0.501046,1.473568 0.275575,-0.170315 0.501046,-0.972769 0.501046,-1.783231 0,-0.810463 0.22547,-1.473569 0.501046,-1.473569 0.275575,0 0.501046,0.450942 0.501046,1.002093 0,1.288368 1.016621,1.305285 1.352077,0.0225 0.246949,-0.944334 0.790282,-0.979522 15.0953,-0.977598 10.97546,0.0015 14.95067,0.158691 15.2675,0.60381 0.33099,0.465017 0.48613,0.45945 0.68249,-0.0245 0.38074,-0.93831 1.02208,-0.755437 1.3179,0.375785 0.33998,1.300082 1.35796,1.300082 1.35796,0 0,-0.551151 0.22547,-1.002093 0.50105,-1.002093 0.27557,0 0.50104,0.550371 0.50104,1.223046 0,0.672674 0.22547,1.362393 0.50105,1.532708 0.29232,0.180665 0.50104,-0.328828 0.50104,-1.223045 0,-0.84299 0.22547,-1.532709 0.50105,-1.532709 0.27558,0 0.50105,0.775842 0.50105,1.724092 0,0.94825 0.22547,1.863439 0.50104,2.033754 0.3026,0.187016 0.50105,-0.495843 0.50105,-1.724091 0,-1.522758 0.19966,-2.033755 0.79465,-2.033755 0.60435,0 0.76756,0.449975 0.68154,1.878923 -0.15415,2.560454 -0.0579,3.131539 0.52799,3.131539 0.27558,0 0.50105,-1.127354 0.50105,-2.505231 0,-1.377877 0.22547,-2.505231 0.50104,-2.505231 0.27781,0 0.50105,1.326267 0.50105,2.976707 0,1.637189 0.22547,3.116055 0.50105,3.28637 0.31297,0.193428 0.50104,-0.829874 0.50104,-2.726183 0,-1.689868 0.22215,-3.035847 0.50105,-3.035847 0.27759,0 0.50105,1.322463 0.50105,2.965297 0,3.148249 0.3253,4.550394 1.05569,4.550394 0.2461,0 0.44744,-1.352824 0.44744,-3.006276 0,-1.670154 0.22269,-3.006277 0.50105,-3.006277 0.28949,0 0.50105,1.586646 0.50105,3.757846 0,2.1712 0.21155,3.757846 0.50104,3.757846 0.28418,0 0.50105,-1.453034 0.50105,-3.357009 0,-4.577947 0.90919,-3.495266 1.10288,1.31333 0.10298,2.556386 0.35945,3.786565 0.82131,3.939365 0.52703,0.17437 0.63487,-0.49125 0.50105,-3.092625 -0.10599,-2.060254 0.0191,-3.251743 0.33051,-3.148171 0.27558,0.09165 0.5679,1.951522 0.64961,4.133045 0.19329,5.160581 1.10405,6.220441 1.10405,1.284796 0,-2.297146 0.18459,-3.523018 0.50105,-3.327439 0.27557,0.170315 0.50104,2.199552 0.50104,4.509414 0,2.30987 0.22548,4.3391 0.50105,4.50942 0.31715,0.19601 0.50105,-1.0804 0.50105,-3.47775 0,-2.190919 0.2112,-3.787422 0.50104,-3.787422 0.29841,0 0.50105,1.900232 0.50105,4.698592 0,3.56527 0.18128,4.84904 0.75157,5.32233 0.65764,0.5458 0.75157,0.11146 0.75157,-3.47554 0,-2.60527 0.18261,-3.98643 0.50104,-3.78963 0.28198,0.17427 0.50105,2.58409 0.50105,5.51151 0,2.92742 0.21907,5.33724 0.50105,5.51151 0.32003,0.19779 0.50104,-1.34078 0.50104,-4.25889 0,-2.91812 0.18101,-4.45669 0.50105,-4.25889 0.28426,0.17568 0.50104,2.66378 0.50104,5.75062 0,2.99252 0.13686,5.7976 0.30413,6.2335 0.65793,1.71454 0.94097,0.62284 0.78184,-3.01565 -0.19168,-4.38284 0.21628,-6.83735 0.94497,-5.68554 0.25242,0.39899 0.46585,3.88202 0.47429,7.74008 0.008,3.85806 0.23391,7.35285 0.50105,7.76621 0.32725,0.50638 0.49318,-1.45513 0.50861,-6.01255 0.0166,-4.89573 0.16566,-6.51892 0.5397,-5.87642 0.71258,1.22402 0.71438,50.10806 0.002,51.3321 -0.37799,0.64938 -0.52281,-0.80099 -0.53392,-5.34694 -0.0122,-4.9898 -0.14056,-6.11292 -0.64154,-5.61285 -0.41686,0.4161 -0.71009,3.03352 -0.87683,7.82668 -0.29282,8.41741 -0.9986,10.32543 -1.00977,2.72983 -0.005,-3.55487 -0.16255,-4.97956 -0.49337,-4.46766 -0.26714,0.41336 -0.48915,3.16207 -0.49337,6.10824 -0.004,3.02188 -0.22607,5.49165 -0.50872,5.66634 -0.31823,0.19667 -0.50686,-1.2094 -0.51698,-3.85354 -0.0144,-3.76991 -0.0854,-4.07132 -0.75157,-3.1906 -0.51666,0.68309 -0.73564,2.27758 -0.73564,5.35667 0,2.41125 -0.22547,4.52343 -0.50104,4.69375 -0.31729,0.19609 -0.50105,-1.09026 -0.50105,-3.50732 0,-2.41707 -0.18376,-3.70342 -0.50104,-3.50733 -0.27558,0.17032 -0.5045,2.15649 -0.50872,4.41373 -0.004,2.25723 -0.22624,4.44226 -0.49338,4.85563 -0.33832,0.52351 -0.48803,-0.35068 -0.49337,-2.88102 -0.004,-1.99792 -0.20648,-3.63258 -0.44946,-3.63258 -0.24298,0 -0.60135,1.91566 -0.79639,4.25702 -0.42891,5.149 -1.26705,6.14455 -1.26705,1.50501 0,-2.08304 -0.1863,-3.20081 -0.50105,-3.00628 -0.27557,0.17031 -0.50105,1.98739 -0.50105,4.03794 0,2.15149 -0.2119,3.72827 -0.50104,3.72827 -0.28016,0 -0.50105,-1.36952 -0.50105,-3.10648 0,-4.2431 -0.90724,-3.16208 -1.10184,1.31289 -0.10255,2.35848 -0.36699,3.53888 -0.82683,3.69092 -0.52675,0.17417 -0.63741,-0.39812 -0.50105,-2.59124 0.12506,-2.01138 -0.004,-2.81458 -0.45129,-2.81409 -0.43615,4.7e-4 -0.62631,0.98052 -0.62631,3.22791 0,1.77498 -0.22547,3.36658 -0.50105,3.53689 -0.31108,0.19226 -0.50104,-0.74636 -0.50104,-2.47566 0,-1.53192 -0.22547,-2.78532 -0.50105,-2.78532 -0.28264,0 -0.50104,1.41963 -0.50104,3.2568 0,1.83717 -0.21841,3.2568 -0.50105,3.2568 -0.27558,0 -0.50105,-1.14614 -0.50105,-2.54698 0,-3.81397 -1.21149,-2.98571 -1.40178,0.95835 -0.18568,3.84834 -1.10345,4.10322 -1.10345,0.30644 0,-1.72929 -0.18996,-2.66791 -0.50104,-2.47566 -0.27558,0.17032 -0.50105,1.52314 -0.50105,3.00628 0,1.48314 -0.22547,2.83596 -0.50105,3.00628 -0.30922,0.19111 -0.50104,-0.67678 -0.50104,-2.26689 0,-3.63156 -1.23516,-3.12712 -1.30087,0.53128 -0.0639,3.55753 -1.20436,4.05444 -1.20436,0.52475 0,-1.40085 -0.22547,-2.54699 -0.50105,-2.54699 -0.27557,0 -0.50104,1.24009 -0.50104,2.75576 0,1.51566 -0.22548,2.75575 -0.50105,2.75575 -0.27558,0 -0.50105,-1.01462 -0.50105,-2.25471 0,-3.12287 -0.91532,-2.84324 -1.10117,0.3364 -0.20838,3.56533 -1.40406,3.92925 -1.40406,0.42735 0,-1.59011 -0.19182,-2.458 -0.50104,-2.26689 -0.27558,0.17032 -0.50105,1.42371 -0.50105,2.78533 0,1.36161 -0.22547,2.47566 -0.50105,2.47566 -0.27557,0 -0.50104,-1.14066 -0.50104,-2.5348 0,-1.56228 -0.19224,-2.416 -0.50105,-2.22514 -0.27557,0.17031 -0.50104,1.42371 -0.50104,2.78532 0,1.36162 -0.22547,2.47566 -0.50105,2.47566 -0.27558,0 -0.50105,-1.01461 -0.50105,-2.2547 0,-1.67016 -0.19485,-2.25471 -0.75157,-2.25471 -0.56528,0 -0.75156,0.60543 -0.75156,2.4426 0,2.33487 -0.0691,2.45641 -1.56577,2.75575 -1.62857,0.32571 -11.81923,0.29071 -15.09402,-0.0518 z m 10.64593,-7.92367 c 3.03205,-2.09643 5.51281,-4.04436 5.51281,-4.32872 0,-0.28436 -0.33762,-0.38747 -0.75027,-0.22912 -1.51019,0.57951 -11.77588,7.92695 -11.77588,8.42832 0,0.82009 1.13678,0.19273 7.01334,-3.87048 z m -1.55609,-1.23121 c 3.04653,-2.06682 5.54513,-4.05847 5.55245,-4.42591 0.0177,-0.88957 0.0707,-0.91857 -6.65207,3.64022 -3.22342,2.18584 -5.86077,4.28264 -5.86077,4.65957 0,0.84722 0.008,0.84293 6.96039,-3.87388 z m -2.40783,-0.55354 c 5.82092,-3.97125 6.80694,-4.7885 6.34036,-5.25508 -0.17653,-0.17653 -2.53055,1.17381 -5.23116,3.00076 -6.31672,4.27324 -8.15899,5.7726 -7.12175,5.79612 0.43709,0.01 3.14274,-1.5839 6.01255,-3.5418 z m -0.91998,-1.65322 c 3.23801,-2.17823 5.88729,-4.28977 5.88729,-4.6923 0,-0.60373 -0.23677,-0.57674 -1.35226,0.15415 -0.92392,0.60538 -1.41328,0.70299 -1.54489,0.30815 -0.27653,-0.82958 -2.11331,-0.71491 -2.11331,0.13193 0,0.3904 0.26742,0.79895 0.59425,0.9079 0.32684,0.10894 -1.35847,1.53692 -3.74512,3.17329 -2.38666,1.63636 -4.3451,3.27584 -4.3521,3.64327 -0.0165,0.86707 -0.21504,0.97572 6.62614,-3.62639 z m -7.35544,1.1806 c 1.9734,-1.35774 2.82816,-2.48116 1.8878,-2.48116 -0.64422,0 -5.17959,3.11682 -5.17959,3.55955 0,0.81189 1.03915,0.47147 3.29179,-1.07839 z m -4.29504,-2.77869 c 2.26532,-1.62747 3.11995,-2.70875 2.14095,-2.70875 -0.78275,0 -5.144182,3.29165 -5.145096,3.88311 -0.0014,0.90815 0.232996,0.81652 3.004146,-1.17436 z m 7.32634,-1.10981 c -0.43325,-0.43325 -0.93795,-0.63749 -1.12157,-0.45387 -0.48046,0.48046 0.82909,1.90919 1.41694,1.54588 0.29287,-0.18101 0.1732,-0.62344 -0.29537,-1.09201 z m 3.69784,0.90629 c 0,-0.27558 0.3382,-0.50105 0.75156,-0.50105 0.41337,0 0.75157,-0.22547 0.75157,-0.50104 0,-0.27558 -0.3382,-0.50105 -0.75157,-0.50105 -0.41336,0 -0.75156,0.22547 -0.75156,0.50105 0,0.27557 -0.45095,0.50104 -1.0021,0.50104 -0.55115,0 -1.00209,0.22547 -1.00209,0.50105 0,0.27558 0.45094,0.50105 1.00209,0.50105 0.55115,0 1.0021,-0.22547 1.0021,-0.50105 z m -2.1947,-2.40943 c -0.43325,-0.43325 -0.93796,-0.63749 -1.12157,-0.45387 -0.48047,0.48046 0.82909,1.90919 1.41693,1.54588 0.29288,-0.181 0.17321,-0.62344 -0.29536,-1.09201 z m 2.69574,-0.61257 c 0,-0.59984 -1.41326,-1.24326 -1.82544,-0.83108 -0.43877,0.43877 0.30546,1.34785 1.10344,1.34785 0.3971,0 0.722,-0.23255 0.722,-0.51677 z m 4.50942,-0.51489 c 0,-0.25931 -0.33821,-0.47148 -0.75157,-0.47148 -0.77483,0 -0.99543,0.59122 -0.43116,1.15549 0.4003,0.4003 1.18273,-0.0522 1.18273,-0.68401 z m -7.74359,-1.98989 c 2.22566,-1.50186 3.73446,-2.86869 3.73334,-3.38206 -0.005,-2.12769 -3.83824,-6.11455 -5.88541,-6.12067 -1.22009,-0.004 -0.60208,0.9647 1.14469,1.7936 1.93586,0.91863 3.23946,2.44918 3.23946,3.80345 0,0.47659 -1.01298,1.56349 -2.25108,2.41532 l -2.25107,1.54878 -1.48913,-1.69602 c -0.81901,-0.93281 -2.86824,-2.43109 -4.55384,-3.3295 -3.805924,-2.02854 -6.178523,-4.07796 -6.990538,-6.03834 -0.66564,-1.60699 -1.504094,-2.01242 -1.504094,-0.72729 0,1.04256 2.027595,3.97199 3.540385,5.11509 0.670754,0.50683 2.797848,1.86143 4.726877,3.01021 1.92903,1.14878 3.91242,2.65931 4.40754,3.35674 1.21899,1.71707 0.83474,1.5945 -1.39019,-0.44346 -1.02769,-0.94133 -3.216364,-2.4299 -4.863707,-3.30793 -3.739927,-1.99336 -6.113312,-4.05134 -6.920996,-6.00126 -0.692801,-1.67257 -1.504093,-1.99658 -1.504093,-0.6007 0,1.08675 1.886148,3.73958 3.554893,4.9999 0.662775,0.50056 2.78334,1.83694 4.712367,2.96972 1.929026,1.13279 4.169556,2.75606 4.978936,3.60727 0.80939,0.85121 1.55236,1.54765 1.65103,1.54765 0.0987,0 1.86026,-1.13422 3.91463,-2.5205 z m 5.7394,1.07872 c 0,-0.95992 -1.32245,-2.41324 -1.77979,-1.9559 -0.39752,0.39752 0.69504,2.89664 1.26634,2.89664 0.2824,0 0.51345,-0.42334 0.51345,-0.94074 z m -7.01464,-2.51468 c 0,-0.79305 -3.33473,-3.40847 -6.49046,-5.09046 -2.839688,-1.51354 -4.96375,-3.44673 -6.352715,-5.78187 -0.860977,-1.44748 -1.458243,-0.39575 -0.644074,1.13415 1.135846,2.13437 3.277877,4.01556 6.570809,5.77067 1.68588,0.89857 3.64993,2.24906 4.36453,3.00108 1.28664,1.354 2.55191,1.83317 2.55191,0.96643 z M 79.118893,156.27868 c 0,-2.49409 -0.201178,-3.7414 -0.626308,-3.88311 -0.466961,-0.15565 -0.626307,0.8323 -0.626307,3.88311 0,3.05082 0.159346,4.03876 0.626307,3.88311 0.42513,-0.14171 0.626308,-1.38901 0.626308,-3.88311 z m 24.759347,1.59677 c -0.56945,-1.63352 -1.4607,-2.16912 -1.4607,-0.87782 0,0.39543 0.23385,1.33402 0.51966,2.08578 0.76356,2.00832 1.66076,0.85664 0.94104,-1.20796 z M 81.3736,156.5292 c 0,-1.51566 -0.225471,-2.75575 -0.501046,-2.75575 -0.275575,0 -0.501046,1.24009 -0.501046,2.75575 0,1.51567 0.225471,2.75576 0.501046,2.75576 0.275575,0 0.501046,-1.24009 0.501046,-2.75576 z m 1.753661,0.25053 c 0,-1.1023 -0.169103,-2.00419 -0.375784,-2.00419 -0.206682,0 -0.375785,0.90189 -0.375785,2.00419 0,1.1023 0.169103,2.00418 0.375785,2.00418 0.206681,0 0.375784,-0.90188 0.375784,-2.00418 z M 133.757,153.72689 c 0.44075,-0.85234 0.65338,-1.69785 0.47249,-1.87892 -0.18088,-0.18108 -3.97414,-0.32923 -8.42946,-0.32923 -8.24849,0 -10.69599,0.47009 -11.24714,2.16021 -0.17073,0.52358 0.4325,0.57448 2.96928,0.25053 4.94112,-0.631 11.45761,-0.39385 13.45499,0.48966 0.96452,0.42664 1.80424,0.7941 1.86606,0.81658 0.0618,0.0225 0.47302,-0.6565 0.91378,-1.50883 z m 5.53503,-0.0135 c 0.89957,-1.00101 1.2635,-1.04276 6.32521,-0.72563 5.90624,0.37003 7.57895,-0.0447 7.3111,-1.81288 -0.14534,-0.95941 -0.56534,-1.0407 -6.32979,-1.22499 -4.79123,-0.15319 -6.53176,-0.0277 -7.77086,0.5603 -2.08803,0.99084 -3.11714,2.57617 -2.30643,3.55302 0.82518,0.99429 1.65728,0.88923 2.77077,-0.34982 z m -35.53907,-1.42989 c 1.54744,-0.54388 2.89952,-1.07487 3.00463,-1.17998 0.2164,-0.2164 -3.20316,-14.39788 -3.55707,-14.75179 -0.12604,-0.12604 -0.83415,0.24671 -1.57358,0.82835 -3.901927,3.06926 -9.304645,2.19643 -12.04603,-1.94609 -2.384702,-3.60353 -1.421309,-9.21756 2.000646,-11.65847 1.24877,-0.89075 2.252572,-1.11748 4.947452,-1.11748 1.859454,0 3.381381,-0.0582 3.382061,-0.12939 0.0022,-0.23272 -2.524797,-10.84605 -3.04113,-12.77255 -0.460931,-1.71979 -0.652893,-1.87892 -2.26658,-1.87892 -1.98517,0 -6.119897,0.94372 -6.445917,1.47123 -0.117573,0.19024 0.348409,1.89467 1.035515,3.78762 0.986829,2.71869 1.112475,3.52183 0.598071,3.82294 -0.358167,0.20966 -1.440361,0.93903 -2.404875,1.62083 l -1.753661,1.23962 -2.614382,-2.55603 c -2.516683,-2.46052 -2.65038,-2.52346 -3.577685,-1.68426 -1.384576,1.25302 -4.266952,6.851 -3.757601,7.29779 0.236386,0.20735 1.817649,0.88248 3.513919,1.50029 l 3.084127,1.1233 -0.453635,1.58173 c -0.249499,0.86996 -0.453635,2.20327 -0.453635,2.96292 v 1.38119 h -3.822396 -3.822395 l 0.338877,2.55458 c 0.270314,2.03773 1.485397,6.07232 2.067349,6.86448 0.06049,0.0823 1.594876,-0.58253 3.409747,-1.47748 1.814871,-0.89496 3.365711,-1.526 3.446312,-1.40233 0.0806,0.12368 0.874843,1.16722 1.764983,2.31899 l 1.618437,2.09413 -2.249934,2.63586 c -1.237463,1.44973 -2.249934,2.80762 -2.249934,3.01753 0,1.06434 7.006167,4.81222 7.92929,4.24169 0.260745,-0.16114 0.861915,-1.72576 1.335933,-3.47693 l 0.861851,-3.18393 2.577416,0.23624 c 1.417579,0.12993 2.643426,0.29208 2.724104,0.36032 0.08068,0.0682 0.261961,0.99752 0.40285,2.06507 0.687024,5.20577 0.683975,5.1978 1.990914,5.1978 0.683336,0 2.508516,-0.44499 4.055956,-0.98887 z m 6.35351,-2.26793 c 0.98931,-0.41336 3.01979,-0.75156 4.51216,-0.75156 2.29203,0 2.75411,-0.15563 2.97547,-1.0021 0.2427,-0.9281 0.0158,-1.00195 -3.0731,-1.00022 -3.56708,0.002 -6.59196,1.26231 -6.59196,2.74652 0,0.92995 -0.0304,0.92984 2.17743,0.007 z m 26.3822,-1.67536 c 0,-1.38744 -0.11087,-1.44662 -4.22362,-2.2547 -5.22604,-1.02683 -8.30508,-1.05161 -10.61746,-0.0854 -3.1201,1.30366 -1.89546,2.03111 3.10867,1.8466 3.63701,-0.13411 4.88628,0.0223 6.72195,0.84143 1.24009,0.55339 2.87475,1.02208 3.63258,1.04155 1.18842,0.0305 1.37788,-0.16053 1.37788,-1.38945 z m 10.27145,-0.32813 c 6.64707,-0.032 7.88192,-0.5126 7.42922,-2.89157 -0.39499,-2.07568 -0.37453,-2.05982 -1.72509,-1.33703 -0.63019,0.33727 -2.3969,0.55751 -3.92602,0.48942 -5.59349,-0.24908 -7.04652,-0.12975 -8.28274,0.68026 -1.85546,1.21574 -1.65907,4.37365 0.21538,3.4632 0.42775,-0.20777 3.25792,-0.38969 6.28925,-0.40428 z m -17.2861,-4.35012 10.27145,0.15999 5.81399,-2.73713 c 5.10328,-2.40254 5.84929,-2.91209 6.10273,-4.16836 0.1588,-0.78717 0.45264,-1.85514 0.65297,-2.37326 0.3477,-0.89925 0.12166,-0.92551 -4.97537,-0.5781 l -5.33961,0.36395 v -1.30083 c 0,-1.27452 -0.0698,-1.30083 -3.45165,-1.30083 -2.83869,0 -3.4393,-0.14034 -3.38206,-0.79029 0.0452,-0.51349 -0.80788,-1.12757 -2.43565,-1.75325 -1.37787,-0.52963 -2.63474,-0.96315 -2.79304,-0.96337 -0.1583,-2.3e-4 -0.62354,1.07057 -1.03386,2.37956 l -0.74603,2.37997 h -3.3255 c -2.28573,0 -3.56205,0.23499 -4.08206,0.75157 -0.61448,0.61044 -1.7717,0.70199 -6.16261,0.48758 -2.97333,-0.14519 -5.49809,-0.20347 -5.61057,-0.12952 -0.11249,0.074 1.31267,2.41319 3.167,5.19829 l 3.37152,5.06383 1.84345,-0.42489 c 1.0139,-0.23369 6.46561,-0.3529 12.1149,-0.26491 z m -14.85601,-14.94085 c -0.26464,-1.32319 -0.16204,-1.50313 0.85706,-1.50313 1.525,0 3.47699,-1.87741 3.47699,-3.34414 0,-1.62741 -1.36821,-1.50131 -3.5911,0.33099 l -1.81523,1.49626 -0.34093,-1.3584 c -0.18752,-0.74711 -0.15481,-1.4208 0.0727,-1.49709 2.62478,-0.88015 3.93228,-2.00848 4.07793,-3.5191 0.0922,-0.95585 -0.0733,-1.6284 -0.40066,-1.6284 -1.1771,0 -3.45815,1.53932 -3.77898,2.55017 -0.41586,1.31026 -1.02342,0.72455 -1.4759,-1.42282 -0.30214,-1.43392 -0.21597,-1.6284 0.72156,-1.6284 1.4762,0 3.52436,-2.19024 3.52436,-3.76883 0,-1.12452 -0.15899,-1.26112 -1.12735,-0.96858 -0.62005,0.18732 -1.72723,0.90179 -2.46042,1.58771 l -1.33305,1.24713 -0.61893,-1.15648 c -0.53118,-0.99251 -0.487,-1.23059 0.31156,-1.6792 1.78864,-1.00482 3.72505,-3.20998 3.72505,-4.24203 0,-1.93035 -2.53796,-0.8944 -3.80326,1.55241 -0.62291,1.20458 -0.9085,1.4015 -1.25012,0.86198 -0.85566,-1.35134 -0.42327,-2.70111 1.18958,-3.71344 1.75634,-1.1024 2.49639,-3.24891 1.12012,-3.24891 -0.44505,0 -1.37287,0.56368 -2.06181,1.25261 -1.55205,1.55206 -1.70811,1.55514 -1.70811,0.0338 0,-0.78102 0.36195,-1.33373 1.00759,-1.53865 1.10175,-0.34968 2.68049,-2.96868 2.36017,-3.915329 -0.11588,-0.342466 -1.00235,0.207314 -2.10142,1.303279 -1.04555,1.0426 -1.96534,1.83128 -2.04399,1.75264 -0.0786,-0.0786 -0.29295,-0.74051 -0.47625,-1.4708 -0.29512,-1.175868 -0.1604,-1.365781 1.17727,-1.659583 1.65756,-0.364062 2.83505,-1.456521 2.37398,-2.202552 -0.3781,-0.611767 -2.29458,-0.14679 -3.4247,0.830901 -0.79629,0.688882 -0.87683,0.665013 -0.87683,-0.259835 0,-0.560119 -0.33821,-1.299084 -0.75157,-1.642145 -0.62912,-0.522122 -0.75157,-0.445117 -0.75157,0.472635 0,0.603011 0.24072,1.546179 0.53494,2.09593 0.51796,0.96781 0.48693,0.974719 -0.97721,0.217584 -1.9626,-1.014902 -2.56401,-0.986775 -2.56401,0.119919 0,1.294196 0.99173,2.104396 2.57587,2.104396 1.52278,0 1.64495,0.12517 2.14025,2.19282 0.30096,1.25637 0.2295,1.39189 -0.55703,1.05649 -1.66962,-0.71197 -3.65804,-0.87499 -3.65804,-0.2999 0,1.00225 1.97576,2.56209 3.24525,2.56209 1.42039,0 2.49166,1.40698 3.02948,3.97884 l 0.36054,1.72413 -1.60242,-1.34834 c -2.96007,-2.49074 -4.21061,-1.21646 -1.57503,1.60494 0.79951,0.85587 1.89925,1.55613 2.44388,1.55613 1.34882,0 2.11208,1.04685 2.43327,3.33735 l 0.26975,1.92363 -1.83868,-2.12944 c -1.22601,-1.41989 -2.24563,-2.12945 -3.05993,-2.12945 h -1.22125 l 1.01392,1.98743 c 1.10347,2.16298 2.28472,3.02303 4.15204,3.02303 1.02755,0 1.31222,0.39202 1.95088,2.68661 l 0.74778,2.68662 -2.20684,-1.68452 c -1.21376,-0.92649 -2.77401,-1.68453 -3.4672,-1.68453 h -1.26036 l 0.92776,1.6284 c 0.61151,1.07334 1.90464,2.10274 3.79366,3.01997 1.57625,0.76536 3.10395,1.83634 3.39488,2.37997 0.80044,1.49563 1.5098,1.18359 1.17014,-0.51474 z m 22.09277,-0.61253 c 0.42899,-0.61247 0.77998,-1.39582 0.77998,-1.74079 0,-0.91264 -2.67191,-2.14971 -3.9316,-1.8203 -1.37508,0.35959 -1.36278,0.83559 0.0485,1.87711 1.10644,0.81655 1.09152,0.82638 -0.80419,0.52958 -2.21476,-0.34674 -2.3735,0.56798 -0.2836,1.63429 1.82671,0.93202 3.32189,0.76082 4.19091,-0.47989 z m 4.9008,-5.27476 c 0.42284,-0.48225 1.16057,-1.66598 1.6394,-2.63049 0.47883,-0.96451 1.30839,-2.23321 1.84347,-2.81932 0.96984,-1.06236 0.96865,-1.06672 -0.38617,-1.40676 -2.52281,-0.63318 -5.71438,1.76118 -5.71438,4.28701 0,0.33645 -0.38561,1.03783 -0.85691,1.55861 -0.73923,0.81684 -0.75643,1.01042 -0.12526,1.40965 1.15849,0.73278 2.76365,0.555 3.59985,-0.3987 z m -19.1522,-8.58169 c 0,-6.90558 -0.13783,-8.57083 -0.75157,-9.08018 -0.66336,-0.55054 -0.75157,0.44197 -0.75157,8.45643 0,7.73724 0.11116,9.08018 0.75157,9.08018 0.63837,0 0.75157,-1.27363 0.75157,-8.45643 z m 2.00418,-0.5624 c 0,-3.7625 -0.20897,-6.58361 -0.50104,-6.76412 -0.325,-0.20086 -0.50105,2.17585 -0.50105,6.76412 0,4.58827 0.17605,6.96498 0.50105,6.76412 0.29207,-0.18051 0.50104,-3.00162 0.50104,-6.76412 z m -4.11026,-1.69571 c 0.12694,-6.57592 0.0356,-7.7424 -0.62631,-7.99639 -0.67708,-0.25982 -0.77493,0.61284 -0.77493,6.91109 0,6.85787 0.20553,8.79934 0.93043,8.78894 0.1772,-0.003 0.38906,-3.46918 0.47081,-7.70364 z m -2.40334,-2.8137 c 0,-3.67434 -0.19485,-6.01256 -0.50104,-6.01256 -0.30197,0 -0.50105,2.07403 -0.50105,5.22001 0,4.71107 0.24777,6.8051 0.80518,6.8051 0.1083,0 0.19691,-2.70565 0.19691,-6.01255 z m 8.48257,3.13153 c 0.0194,-0.34447 -0.19025,-0.6263 -0.46583,-0.6263 -0.27557,0 -0.4852,0.73278 -0.46583,1.6284 0.0295,1.36461 0.10497,1.46607 0.46583,0.6263 0.23684,-0.55115 0.44646,-1.28393 0.46583,-1.6284 z m -10.17095,-3.2568 c -0.16616,-0.62004 -0.30519,-2.31107 -0.30896,-3.75784 -0.004,-1.44677 -0.23231,-2.63049 -0.50789,-2.63049 -0.5435,0 -0.67568,4.55826 -0.18524,6.38833 0.16617,0.62005 0.52759,1.12736 0.80317,1.12736 0.27557,0 0.36509,-0.50731 0.19892,-1.12736 z m -62.413217,63.80348 -1.03738,-1.45686 3.100288,-1.70125 c 3.434049,-1.88438 3.733515,-2.27445 2.764034,-3.6003 -0.633399,-0.86622 -0.815771,-0.83478 -3.750311,0.64657 -1.696495,0.85639 -3.203055,1.55707 -3.347911,1.55707 -0.144856,0 -0.566089,-0.73278 -0.936074,-1.6284 l -0.6727,-1.6284 2.92597,-1.34698 c 2.632232,-1.21175 2.92597,-1.50022 2.92597,-2.87344 0,-1.62129 -2.113125,-9.39262 -3.009299,-11.06714 -0.550928,-1.02942 -2.7083,-1.37799 -3.236733,-0.52297 -0.16094,0.26041 0.07197,1.9249 0.517579,3.69888 0.686618,2.73344 0.954653,3.18764 1.757258,2.97775 0.684992,-0.17913 1.088181,0.12351 1.457036,1.09368 0.738748,1.94305 0.653692,2.22303 -0.785046,2.58413 -1.854815,0.46552 -2.464008,-0.43028 -3.615416,-5.3164 -2.20347,-9.35067 -2.013277,-10.19656 2.231512,-9.92471 2.088227,0.13374 2.453234,0.32128 2.738295,1.40692 1.715957,6.53518 3.144602,12.60888 3.328751,14.15176 0.123159,1.03188 0.417952,1.75622 0.655097,1.60966 0.237145,-0.14657 1.080346,1.01734 1.87378,2.58645 1.997058,3.94942 2.518386,2.54762 0.58803,-1.58116 -0.851567,-1.82138 -2.355185,-6.47637 -3.341373,-10.34441 -1.481367,-5.81024 -1.672672,-7.10726 -1.100485,-7.46113 0.549095,-0.33958 0.869959,0.47625 1.548728,3.93784 1.069607,5.45478 2.544339,9.90634 4.720568,14.24931 1.704274,3.40112 2.118679,5.57477 1.174122,6.15854 -0.282884,0.17483 -0.451987,0.69545 -0.375785,1.15692 0.100155,0.60653 -0.178044,0.80524 -1.003885,0.71703 -0.62834,-0.0671 -1.981164,0.40465 -3.006277,1.04837 -3.938797,2.47338 -3.947476,2.47487 -5.088343,0.87267 z m 108.228877,-36.526 c -0.0233,-14.68184 0.13448,-22.09599 0.46583,-21.8912 0.62465,0.38605 0.62465,41.63633 0,43.08997 -0.24939,0.58035 -0.44544,-8.34123 -0.46583,-21.19877 z m -98.425497,15.81252 c -0.468751,-1.74914 -0.299814,-31.56447 0.185244,-32.69326 0.251926,-0.58626 0.445227,6.22295 0.46583,16.40926 0.01937,9.57625 -0.05122,17.41135 -0.156869,17.41135 -0.105647,0 -0.328039,-0.5073 -0.494205,-1.12735 z m 100.603667,-0.87683 c 0.15299,-0.68894 0.30157,-7.904 0.33019,-16.03348 0.0368,-10.43948 0.19458,-14.28539 0.53736,-13.09398 0.75706,2.63129 0.33612,28.13285 -0.48492,29.37798 -0.62647,0.95007 -0.64634,0.93706 -0.38263,-0.25052 z M 61.526433,135.98631 c 8.76e-4,-3.58248 0.08068,-4.98229 0.177349,-3.1107 0.09667,1.8716 0.09595,4.80272 -0.0016,6.5136 -0.09754,1.71089 -0.176633,0.17958 -0.175756,-3.4029 z m -9.213506,5.26099 c 0,-0.29228 -1.670154,-0.50105 -4.008369,-0.50105 h -4.008369 v -1.50314 c 0,-0.82672 0.184031,-1.50314 0.408958,-1.50314 0.224926,0 0.667249,-2.19834 0.982938,-4.8852 0.492983,-4.19581 2.791314,-14.4964 3.361822,-15.06691 0.10454,-0.10454 0.40174,-0.0593 0.660445,0.10063 0.276581,0.17094 0.102372,1.40619 -0.422842,2.99822 -1.212899,3.67654 -2.406598,9.94902 -2.587506,13.59646 l -0.149107,3.00628 2.047509,0.15007 c 1.386604,0.10163 2.256126,-0.1013 2.693815,-0.62869 0.597766,-0.72026 2.496811,-9.79612 2.515599,-12.02248 0.01876,-2.22338 -1.034506,0.24596 -1.815952,4.25742 -0.453781,2.32942 -0.985508,4.4169 -1.181617,4.63883 -0.196109,0.22194 -0.952851,0.25386 -1.68165,0.0709 -1.13015,-0.28365 -1.324619,-0.601 -1.321895,-2.15718 0.0026,-1.49831 2.69233,-12.95441 3.148613,-13.41069 0.07371,-0.0737 0.391205,0.0249 0.705549,0.21921 0.411449,0.25429 0.231957,1.52564 -0.640818,4.53894 -1.247865,4.30832 -1.492165,6.08096 -0.836569,6.07018 0.206681,-0.003 0.875792,-2.07043 1.486911,-4.5934 0.61112,-2.52297 1.301765,-4.77785 1.534767,-5.01085 0.233002,-0.23301 1.161001,-0.1666 2.06222,0.14757 1.341516,0.46765 1.58187,0.76406 1.325772,1.63497 -0.839877,2.85617 -2.768543,11.72268 -2.772547,12.74603 -0.0025,0.63816 -0.237943,1.59641 -0.523214,2.12945 -0.357535,0.66806 -0.357535,0.96915 0,0.96915 0.285271,0 0.518675,1.01462 0.518675,2.25471 0,1.67015 -0.194851,2.2547 -0.751569,2.2547 -0.413363,0 -0.751569,-0.22547 -0.751569,-0.50104 z m 114.421503,-4.25889 c 0.001,-2.75576 0.0855,-3.81919 0.18698,-2.36318 0.10153,1.45601 0.10047,3.71072 -0.002,5.01046 -0.10284,1.29975 -0.18591,0.10847 -0.18461,-2.64728 z M 56.519048,117.49076 c -0.149513,-0.38962 -1.551629,-1.21393 -3.115813,-1.83178 -3.676174,-1.4521 -3.7103,-1.49048 -3.038586,-3.41736 0.476256,-1.36619 0.760968,-1.5875 1.729531,-1.34441 1.465357,0.36778 1.874314,-0.29571 2.060191,-3.34246 0.297616,-4.87828 4.724732,-11.348246 10.131909,-14.807176 3.576764,-2.288028 7.592397,-3.711066 8.454098,-2.995917 0.488063,0.405056 0.06424,0.729876 -1.756638,1.346305 -3.415259,1.156179 -6.971077,3.349999 -9.453677,5.832599 -2.113781,2.113781 -4.707721,6.497849 -4.707721,7.956609 0,1.20299 1.636661,1.81306 3.017336,1.12472 1.686603,-0.84087 4.212599,-4.56664 3.809056,-5.61825 -0.263698,-0.68719 -0.464644,-0.729847 -1.070291,-0.2272 -0.410102,0.34035 -0.74564,0.99906 -0.74564,1.4638 0,0.46474 -0.323028,1.28264 -0.717839,1.81757 -0.565399,0.76606 -0.849278,0.843 -1.336789,0.36232 -0.489853,-0.48298 -0.130285,-1.34515 1.723924,-4.133626 1.288581,-1.937847 2.644338,-3.523358 3.012794,-3.523358 0.368456,0 1.052878,0.423164 1.520937,0.940363 0.810734,0.895851 0.683967,1.196992 -2.678098,6.361931 -1.941012,2.98186 -3.529114,5.57807 -3.529114,5.76935 0,0.19129 -0.901883,0.70866 -2.004184,1.14971 -1.102302,0.44105 -2.004185,1.02128 -2.004185,1.28939 0,0.43411 1.558394,1.52482 2.178645,1.52482 0.132187,0 1.083741,-1.52192 2.114565,-3.38206 4.528657,-8.17201 13.296029,-19.312804 14.360631,-18.248202 0.297998,0.297998 -0.986438,2.215919 -3.458913,5.164852 -4.698614,5.60406 -8.61675,11.61237 -11.28306,17.30212 -1.913225,4.08272 -2.665019,4.89354 -3.213069,3.46534 z"
       id="path1" /></g></svg>
